# xmcd
#
# Track frame offsets:
#	150
#	17900
#	39110
#	53245
#	66950
#	88190
#	100252
#	117192
#	132515
#	150992
#	172830
#	186317
#
# Disc length: 2665 seconds
#
# Revision: 1
# Processed by: cddbd v1.4PL0 Copyright (c) Steve Scherf et al.
# Submitted via: EasyCDDAExtractor 6.0.0.1
#
DISCID=980a670c
DTITLE=La Migra - Vuelve el Internacional Grupo La Migra
DYEAR=1900
DGENRE=Norteña
TTITLE0=Amargo dolor
TTITLE1=Entre copa y copa
TTITLE2=Lástima
TTITLE3=Tu amor y el mío
TTITLE4=Las rejas no matan
TTITLE5=Morenita consentida
TTITLE6=Infierno divino
TTITLE7=Tu amor y mi amor
TTITLE8=El parrandero
TTITLE9=Simón Blanco
TTITLE10=Morena morenita
TTITLE11=La cárcel de Cananea
EXTD=
EXTT0=
EXTT1=
EXTT2=
EXTT3=
EXTT4=
EXTT5=
EXTT6=
EXTT7=
EXTT8=
EXTT9=
EXTT10=
EXTT11=
PLAYORDER=
